<?xml version="1.0" encoding="UTF-8"?>
<svg id="_图层_1" data-name="图层_1" xmlns="http://www.w3.org/2000/svg" version="1.1" viewBox="0 0 423.72 423.72">
  <!-- Generator: Adobe Illustrator 30.0.0, SVG Export Plug-In . SVG Version: 2.1.1 Build 123)  -->
  <path d="M394.82,0c13.08,5.81,9.85,20.28-4.51,21.5-16.23,1.39-34.39-1.09-50.83-.03v14.45c0,12.06-16.55,27.67-28.5,27.67h-35.1v59.88c0,1.95-2.82,10.44-3.73,12.79-4.83,12.37-15.4,23.01-27.52,28.23-1.62,24.01,7.46,55.57-21.47,66.08-.17,9.17,2.16,23.52-11.29,23.07-12.17-.41-9.18-14.73-9.63-23.07-29.2-10.45-19.77-41.96-21.47-66.08-11.09-4.71-21.21-14.31-26.44-25.18-1.32-2.74-4.81-12.46-4.81-15.01v-60.71h-35.1c-10.92,0-28.5-14.94-28.5-26.02v-16.11c-16.41-1.09-34.63,1.44-50.83.03-14.33-1.25-17.76-14.34-5.34-21.5h365.08ZM318,21.48H106.55c-.19,8.21-.93,19.15,9.48,20.67h193.32c2.74.53,8.65-5.05,8.65-7.04v-13.63ZM255.23,63.6h-85.08v55.75c0,9.41,9.39,21.27,17.61,25.34,9.69,4.79,40.1,4.77,49.85,0,8.98-4.39,17.61-16.85,17.61-26.99v-54.1ZM223.01,169.32h-20.65v35.1c0,3.27,7.76,7.31,11.14,7.07s9.51-4.79,9.51-7.9v-34.28Z"/>
  <path d="M46.53,383.53c-5.7,5.69-2.76,17.31,5.9,17.91l337.87-.05c13.03-.18,17.96,16.03,5.19,20.94l-343.89.6c-38.49-4.54-38.94-58.19-.57-63.4l281.04-.62c9.91-3.81,9.74-15.84.21-20.09-31.81-1.99-65.76,2.05-97.33-.14-15.93-1.11-30.9-10.74-32.58-27.71-.52-5.21-.83-24.23.16-28.73,1.44-6.5,9.82-9.02,15.45-5.89,13.09,7.27-5.47,38.94,16.14,40.85,30.8,2.72,65.71-2.5,96.7-.06,39.3,3.09,39.72,60.45-.83,63.66l-279.65.35c-1.14.78-2.88,1.45-3.82,2.38Z"/>
</svg>